<svg data-v-423bf9ae="" xmlns="http://www.w3.org/2000/svg" viewBox="0 0 308.5433032260535 60" class="font"><!----><!----><!----><g data-v-423bf9ae="" id="e5b2aced-962b-4655-9871-4a8d6c3303fd" fill="black" transform="matrix(3.937007686777325,0,0,3.937007686777325,-0.0000032060443402315286,4.645669094802283)"><path d="M3.91 10.26L3.91 10.26L3.91 10.26Q4.28 10.74 4.78 11.27L4.78 11.27L4.78 11.27Q5.28 11.80 5.78 12.24L5.78 12.24L5.78 12.24Q6.29 12.68 6.71 12.97L6.71 12.97L6.71 12.97Q7.14 13.26 7.38 13.24L7.38 13.24L7.38 13.24Q6.92 13.37 6.39 13.60L6.39 13.60L6.39 13.60Q5.87 13.83 5.47 14.06L5.47 14.06L5.47 14.06Q5.29 13.93 5.03 13.70L5.03 13.70L5.03 13.70Q4.77 13.47 4.47 13.17L4.47 13.17L4.47 13.17Q4.16 12.88 3.83 12.54L3.83 12.54L3.83 12.54Q3.50 12.19 3.19 11.85L3.19 11.85L3.19 11.85Q2.88 11.51 2.60 11.19L2.60 11.19L2.60 11.19Q2.31 10.86 2.10 10.61L2.10 10.61L2.10 10.61Q1.99 10.64 1.87 10.63L1.87 10.63L1.87 10.63Q1.75 10.61 1.64 10.61L1.64 10.61L1.64 10.61Q1.68 11.19 1.69 11.85L1.69 11.85L1.69 11.85Q1.71 12.52 1.74 13.05L1.74 13.05L1.74 13.05Q1.58 13.13 1.36 13.24L1.36 13.24L1.36 13.24Q1.13 13.36 0.90 13.48L0.90 13.48L0.90 13.48Q0.66 13.61 0.43 13.75L0.43 13.75L0.43 13.75Q0.20 13.89 0.04 14.03L0.04 14.03L0.04 14.03Q0.06 13.64 0.09 12.89L0.09 12.89L0.09 12.89Q0.13 12.15 0.15 11.20L0.15 11.20L0.15 11.20Q0.18 10.25 0.21 9.16L0.21 9.16L0.21 9.16Q0.24 8.08 0.24 7.03L0.24 7.03L0.24 7.03Q0.24 6.01 0.22 4.94L0.22 4.94L0.22 4.94Q0.21 3.86 0.18 2.91L0.18 2.91L0.18 2.91Q0.15 1.96 0.11 1.20L0.11 1.20L0.11 1.20Q0.07 0.45 0 0.04L0 0.04L0 0.04Q0.88 0.04 1.54-0.20L1.54-0.20L1.54-0.20Q2.20-0.45 2.74-0.80L2.74-0.80L2.74-0.80Q2.45-0.52 2.30-0.23L2.30-0.23L2.30-0.23Q2.14 0.06 2.06 0.21L2.06 0.21L2.06 0.21Q1.89 0.70 1.79 1.44L1.79 1.44L1.79 1.44Q1.69 2.18 1.65 3.09L1.65 3.09L1.65 3.09Q1.61 3.99 1.60 5.00L1.60 5.00L1.60 5.00Q1.60 6.01 1.60 7.03L1.60 7.03L1.60 7.03Q1.60 7.56 1.60 7.80L1.60 7.80L1.60 7.80Q1.60 8.04 1.60 8.10L1.60 8.10L1.60 8.10Q1.60 8.16 1.59 8.11L1.59 8.11L1.59 8.11Q1.58 8.05 1.58 7.98L1.58 7.98L1.58 7.98Q1.58 7.91 1.58 7.88L1.58 7.88L1.58 7.88Q1.58 7.84 1.58 7.96L1.58 7.96L1.58 7.96Q1.58 8.08 1.59 8.40L1.59 8.40L1.59 8.40Q1.60 8.72 1.60 9.35L1.60 9.35L1.60 9.35Q1.88 9.06 2.30 8.71L2.30 8.71L2.30 8.71Q2.73 8.36 3.21 8.02L3.21 8.02L3.21 8.02Q3.70 7.69 4.21 7.42L4.21 7.42L4.21 7.42Q4.72 7.15 5.18 7.03L5.18 7.03L5.18 7.03Q5.53 7.13 5.78 7.49L5.78 7.49L5.78 7.49Q6.03 7.85 6.03 8.41L6.03 8.41L6.03 8.41Q6.03 8.67 5.87 8.91L5.87 8.91L5.87 8.91Q5.70 9.16 5.40 9.40L5.40 9.40L5.40 9.40Q5.11 9.65 4.73 9.86L4.73 9.86L4.73 9.86Q4.34 10.08 3.91 10.26ZM1.64 10.01L1.64 10.40L1.64 10.40Q2.41 10.44 2.95 10.33L2.95 10.33L2.95 10.33Q3.50 10.22 3.82 10.02L3.82 10.02L3.82 10.02Q4.14 9.81 4.26 9.55L4.26 9.55L4.26 9.55Q4.38 9.30 4.31 9.03L4.31 9.03L4.31 9.03Q4.28 8.90 4.23 8.75L4.23 8.75L4.23 8.75Q4.17 8.60 4.09 8.46L4.09 8.46L4.09 8.46Q4.02 8.33 3.92 8.23L3.92 8.23L3.92 8.23Q3.82 8.13 3.71 8.12L3.71 8.12L3.71 8.12Q3.46 8.06 3.16 8.24L3.16 8.24L3.16 8.24Q2.87 8.41 2.58 8.70L2.58 8.70L2.58 8.70Q2.30 8.99 2.04 9.34L2.04 9.34L2.04 9.34Q1.79 9.70 1.64 10.01L1.64 10.01ZM12.39 12.49L12.39 12.49L12.39 12.49Q12.80 12.49 13.15 12.38L13.15 12.38L13.15 12.38Q13.51 12.28 13.78 12.14L13.78 12.14L13.78 12.14Q14.08 11.98 14.35 11.79L14.35 11.79L14.35 11.79Q13.97 12.42 13.44 12.91L13.44 12.91L13.44 12.91Q12.99 13.33 12.31 13.67L12.31 13.67L12.31 13.67Q11.63 14.01 10.74 14.01L10.74 14.01L10.74 14.01Q10.09 14.01 9.51 13.79L9.51 13.79L9.51 13.79Q8.92 13.57 8.46 13.15L8.46 13.15L8.46 13.15Q8.01 12.73 7.74 12.12L7.74 12.12L7.74 12.12Q7.48 11.51 7.48 10.75L7.48 10.75L7.48 10.75Q7.48 10.07 7.69 9.54L7.69 9.54L7.69 9.54Q7.91 9.02 8.26 8.62L8.26 8.62L8.26 8.62Q8.61 8.23 9.04 7.97L9.04 7.97L9.04 7.97Q9.48 7.71 9.90 7.55L9.90 7.55L9.90 7.55Q11.24 7 11.73 7L11.73 7L11.73 7Q12.25 7 12.63 7.17L12.63 7.17L12.63 7.17Q13.02 7.35 13.30 7.56L13.30 7.56L13.30 7.56Q13.61 7.81 13.85 8.12L13.85 8.12L9.23 9.98L9.23 9.98Q9.32 10.57 9.51 11.03L9.51 11.03L9.51 11.03Q9.69 11.49 10.04 11.82L10.04 11.82L10.04 11.82Q10.39 12.14 10.95 12.31L10.95 12.31L10.95 12.31Q11.51 12.49 12.39 12.49ZM10.12 7.81L10.12 7.81L10.12 7.81Q9.93 7.81 9.74 7.92L9.74 7.92L9.74 7.92Q9.56 8.02 9.41 8.19L9.41 8.19L9.41 8.19Q9.27 8.36 9.19 8.57L9.19 8.57L9.19 8.57Q9.11 8.78 9.13 8.99L9.13 8.99L9.13 8.99Q9.13 9.21 9.13 9.42L9.13 9.42L9.13 9.42Q9.14 9.63 9.18 9.84L9.18 9.84L11.54 8.76L11.54 8.76Q11.40 8.50 11.19 8.29L11.19 8.29L11.19 8.29Q11.00 8.11 10.74 7.96L10.74 7.96L10.74 7.96Q10.47 7.81 10.12 7.81ZM15.99 6.99L15.99 6.99L15.99 6.99Q15.99 5.42 15.99 4.28L15.99 4.28L15.99 4.28Q15.99 3.14 15.97 2.32L15.97 2.32L15.97 2.32Q15.96 1.50 15.90 0.95L15.90 0.95L15.90 0.95Q15.85 0.41 15.75 0.01L15.75 0.01L15.75 0.01Q16.72 0.01 17.38-0.34L17.38-0.34L17.38-0.34Q18.05-0.70 18.61-1.18L18.61-1.18L18.61-1.18Q18.33-0.77 18.13-0.45L18.13-0.45L18.13-0.45Q17.93-0.13 17.86 0.10L17.86 0.10L17.86 0.10Q17.71 0.59 17.63 1.33L17.63 1.33L17.63 1.33Q17.54 2.07 17.50 2.98L17.50 2.98L17.50 2.98Q17.46 3.89 17.45 4.91L17.45 4.91L17.45 4.91Q17.44 5.94 17.44 6.99L17.44 6.99L17.44 6.99Q17.44 8.05 17.40 8.79L17.40 8.79L17.40 8.79Q17.36 9.52 17.34 10.04L17.34 10.04L17.34 10.04Q17.32 10.57 17.34 10.93L17.34 10.93L17.34 10.93Q17.36 11.28 17.49 11.59L17.49 11.59L17.49 11.59Q17.58 11.79 17.70 11.97L17.70 11.97L17.70 11.97Q17.81 12.15 17.96 12.31L17.96 12.31L17.96 12.31Q18.12 12.47 18.31 12.58L18.31 12.58L18.31 12.58Q18.51 12.68 18.77 12.70L18.77 12.70L18.77 12.70Q18.24 13.08 17.83 13.40L17.83 13.40L17.83 13.40Q17.42 13.72 17.08 14.04L17.08 14.04L17.08 14.04Q16.81 13.90 16.60 13.69L16.60 13.69L16.60 13.69Q16.39 13.47 16.25 13.23L16.25 13.23L16.25 13.23Q16.10 12.99 16.01 12.75L16.01 12.75L16.01 12.75Q15.92 12.52 15.89 12.33L15.89 12.33L15.89 12.33Q15.86 11.80 15.88 11.30L15.88 11.30L15.88 11.30Q15.89 10.79 15.92 10.19L15.92 10.19L15.92 10.19Q15.95 9.59 15.97 8.82L15.97 8.82L15.97 8.82Q15.99 8.05 15.99 6.99ZM22.64 9.44L22.64 9.44L22.64 9.44Q23.20 9.45 23.65 9.60L23.65 9.60L23.65 9.60Q24.09 9.74 24.41 10.00L24.41 10.00L24.41 10.00Q24.72 10.25 24.89 10.59L24.89 10.59L24.89 10.59Q25.06 10.93 25.06 11.33L25.06 11.33L25.06 11.33Q25.06 12.00 24.75 12.49L24.75 12.49L24.75 12.49Q24.44 12.99 24.00 13.33L24.00 13.33L24.00 13.33Q23.55 13.66 23.04 13.83L23.04 13.83L23.04 13.83Q22.53 14 22.12 14L22.12 14L22.12 14Q21.69 14 21.22 13.86L21.22 13.86L21.22 13.86Q20.76 13.72 20.37 13.55L20.37 13.55L20.37 13.55Q19.91 13.36 19.47 13.10L19.47 13.10L19.47 13.10Q19.77 13.19 20.13 13.24L20.13 13.24L20.13 13.24Q20.45 13.30 20.88 13.34L20.88 13.34L20.88 13.34Q21.31 13.37 21.83 13.37L21.83 13.37L21.83 13.37Q22.20 13.37 22.51 13.24L22.51 13.24L22.51 13.24Q22.82 13.10 23.04 12.89L23.04 12.89L23.04 12.89Q23.25 12.68 23.37 12.43L23.37 12.43L23.37 12.43Q23.48 12.17 23.48 11.93L23.48 11.93L23.48 11.93Q23.48 11.65 23.36 11.40L23.36 11.40L23.36 11.40Q23.24 11.14 23.03 10.96L23.03 10.96L23.03 10.96Q22.82 10.77 22.55 10.65L22.55 10.65L22.55 10.65Q22.27 10.54 21.97 10.54L21.97 10.54L21.97 10.54Q21.55 10.54 21.24 10.64L21.24 10.64L21.24 10.64Q20.93 10.74 20.66 10.82L20.66 10.82L20.66 10.82Q20.92 10.60 21.31 10.23L21.31 10.23L21.31 10.23Q21.70 9.86 22.11 9.46L22.11 9.46L22.11 9.46Q22.51 9.06 22.85 8.69L22.85 8.69L22.85 8.69Q23.18 8.33 23.31 8.13L23.31 8.13L23.31 8.13Q22.78 8.11 22.06 8.13L22.06 8.13L22.06 8.13Q21.34 8.15 20.71 8.19L20.71 8.19L20.71 8.19Q21.27 7.70 21.69 7.25L21.69 7.25L21.69 7.25Q22.12 6.80 22.43 6.37L22.43 6.37L22.43 6.37Q22.32 6.62 22.39 6.75L22.39 6.75L22.39 6.75Q22.46 6.89 22.61 6.95L22.61 6.95L22.61 6.95Q22.76 7.01 22.96 7.02L22.96 7.02L22.96 7.02Q23.16 7.03 23.31 7.03L23.31 7.03L23.31 7.03Q23.67 7 24.10 7.01L24.10 7.01L24.10 7.01Q24.53 7.03 24.99 7L24.99 7L24.99 7Q24.70 7.31 24.32 7.67L24.32 7.67L24.32 7.67Q23.94 8.04 23.60 8.38L23.60 8.38L23.60 8.38Q23.25 8.72 22.99 9.01L22.99 9.01L22.99 9.01Q22.72 9.30 22.64 9.44ZM28.92 9.44L28.92 9.44L28.92 9.44Q29.48 9.45 29.93 9.60L29.93 9.60L29.93 9.60Q30.38 9.74 30.70 10.00L30.70 10.00L30.70 10.00Q31.01 10.25 31.18 10.59L31.18 10.59L31.18 10.59Q31.35 10.93 31.35 11.33L31.35 11.33L31.35 11.33Q31.35 12.00 31.04 12.49L31.04 12.49L31.04 12.49Q30.73 12.99 30.28 13.33L30.28 13.33L30.28 13.33Q29.83 13.66 29.32 13.83L29.32 13.83L29.32 13.83Q28.81 14 28.41 14L28.41 14L28.41 14Q27.97 14 27.51 13.86L27.51 13.86L27.51 13.86Q27.05 13.72 26.66 13.55L26.66 13.55L26.66 13.55Q26.19 13.36 25.76 13.10L25.76 13.10L25.76 13.10Q26.05 13.19 26.42 13.24L26.42 13.24L26.42 13.24Q26.74 13.30 27.17 13.34L27.17 13.34L27.17 13.34Q27.59 13.37 28.11 13.37L28.11 13.37L28.11 13.37Q28.49 13.37 28.80 13.24L28.80 13.24L28.80 13.24Q29.11 13.10 29.32 12.89L29.32 12.89L29.32 12.89Q29.54 12.68 29.65 12.43L29.65 12.43L29.65 12.43Q29.76 12.17 29.76 11.93L29.76 11.93L29.76 11.93Q29.76 11.65 29.64 11.40L29.64 11.40L29.64 11.40Q29.53 11.14 29.32 10.96L29.32 10.96L29.32 10.96Q29.11 10.77 28.83 10.65L28.83 10.65L28.83 10.65Q28.56 10.54 28.25 10.54L28.25 10.54L28.25 10.54Q27.83 10.54 27.52 10.64L27.52 10.64L27.52 10.64Q27.22 10.74 26.95 10.82L26.95 10.82L26.95 10.82Q27.20 10.60 27.59 10.23L27.59 10.23L27.59 10.23Q27.99 9.86 28.39 9.46L28.39 9.46L28.39 9.46Q28.80 9.06 29.13 8.69L29.13 8.69L29.13 8.69Q29.47 8.33 29.60 8.13L29.60 8.13L29.60 8.13Q29.06 8.11 28.34 8.13L28.34 8.13L28.34 8.13Q27.62 8.15 26.99 8.19L26.99 8.19L26.99 8.19Q27.55 7.70 27.98 7.25L27.98 7.25L27.98 7.25Q28.41 6.80 28.71 6.37L28.71 6.37L28.71 6.37Q28.60 6.62 28.67 6.75L28.67 6.75L28.67 6.75Q28.74 6.89 28.90 6.95L28.90 6.95L28.90 6.95Q29.05 7.01 29.25 7.02L29.25 7.02L29.25 7.02Q29.44 7.03 29.60 7.03L29.60 7.03L29.60 7.03Q29.96 7 30.39 7.01L30.39 7.01L30.39 7.01Q30.81 7.03 31.28 7L31.28 7L31.28 7Q30.98 7.31 30.60 7.67L30.60 7.67L30.60 7.67Q30.23 8.04 29.88 8.38L29.88 8.38L29.88 8.38Q29.54 8.72 29.27 9.01L29.27 9.01L29.27 9.01Q29.01 9.30 28.92 9.44ZM35.21 9.44L35.21 9.44L35.21 9.44Q35.77 9.45 36.22 9.60L36.22 9.60L36.22 9.60Q36.67 9.74 36.98 10.00L36.98 10.00L36.98 10.00Q37.30 10.25 37.46 10.59L37.46 10.59L37.46 10.59Q37.63 10.93 37.63 11.33L37.63 11.33L37.63 11.33Q37.63 12.00 37.32 12.49L37.32 12.49L37.32 12.49Q37.02 12.99 36.57 13.33L36.57 13.33L36.57 13.33Q36.12 13.66 35.61 13.83L35.61 13.83L35.61 13.83Q35.10 14 34.69 14L34.69 14L34.69 14Q34.26 14 33.80 13.86L33.80 13.86L33.80 13.86Q33.33 13.72 32.94 13.55L32.94 13.55L32.94 13.55Q32.48 13.36 32.05 13.10L32.05 13.10L32.05 13.10Q32.34 13.19 32.70 13.24L32.70 13.24L32.70 13.24Q33.03 13.30 33.45 13.34L33.45 13.34L33.45 13.34Q33.88 13.37 34.40 13.37L34.40 13.37L34.40 13.37Q34.78 13.37 35.08 13.24L35.08 13.24L35.08 13.24Q35.39 13.10 35.61 12.89L35.61 12.89L35.61 12.89Q35.83 12.68 35.94 12.43L35.94 12.43L35.94 12.43Q36.05 12.17 36.05 11.93L36.05 11.93L36.05 11.93Q36.05 11.65 35.93 11.40L35.93 11.40L35.93 11.40Q35.81 11.14 35.60 10.96L35.60 10.96L35.60 10.96Q35.39 10.77 35.12 10.65L35.12 10.65L35.12 10.65Q34.85 10.54 34.54 10.54L34.54 10.54L34.54 10.54Q34.12 10.54 33.81 10.64L33.81 10.64L33.81 10.64Q33.50 10.74 33.24 10.82L33.24 10.82L33.24 10.82Q33.49 10.60 33.88 10.23L33.88 10.23L33.88 10.23Q34.27 9.86 34.68 9.46L34.68 9.46L34.68 9.46Q35.08 9.06 35.42 8.69L35.42 8.69L35.42 8.69Q35.76 8.33 35.88 8.13L35.88 8.13L35.88 8.13Q35.35 8.11 34.63 8.13L34.63 8.13L34.63 8.13Q33.91 8.15 33.28 8.19L33.28 8.19L33.28 8.19Q33.84 7.70 34.27 7.25L34.27 7.25L34.27 7.25Q34.69 6.80 35 6.37L35 6.37L35 6.37Q34.89 6.62 34.96 6.75L34.96 6.75L34.96 6.75Q35.03 6.89 35.18 6.95L35.18 6.95L35.18 6.95Q35.34 7.01 35.53 7.02L35.53 7.02L35.53 7.02Q35.73 7.03 35.88 7.03L35.88 7.03L35.88 7.03Q36.25 7 36.67 7.01L36.67 7.01L36.67 7.01Q37.10 7.03 37.56 7L37.56 7L37.56 7Q37.27 7.31 36.89 7.67L36.89 7.67L36.89 7.67Q36.51 8.04 36.17 8.38L36.17 8.38L36.17 8.38Q35.83 8.72 35.56 9.01L35.56 9.01L35.56 9.01Q35.29 9.30 35.21 9.44ZM42.84 7L42.84 7L42.84 7Q43.01 7.20 43.30 7.39L43.30 7.39L43.30 7.39Q43.60 7.59 43.92 7.75L43.92 7.75L43.92 7.75Q44.24 7.91 44.56 8.02L44.56 8.02L44.56 8.02Q44.87 8.12 45.11 8.12L45.11 8.12L45.11 8.12Q44.90 8.26 44.64 8.41L44.64 8.41L44.64 8.41Q44.38 8.55 44.15 8.69L44.15 8.69L44.15 8.69Q43.92 8.82 43.74 8.92L43.74 8.92L43.74 8.92Q43.57 9.02 43.50 9.07L43.50 9.07L43.50 9.07Q43.30 9.10 42.99 9.03L42.99 9.03L42.99 9.03Q42.69 8.96 42.36 8.83L42.36 8.83L42.36 8.83Q42.03 8.71 41.73 8.57L41.73 8.57L41.73 8.57Q41.44 8.43 41.29 8.32L41.29 8.32L41.29 8.32Q41.16 8.40 41.03 8.55L41.03 8.55L41.03 8.55Q40.89 8.71 40.78 8.92L40.78 8.92L40.78 8.92Q40.67 9.13 40.60 9.38L40.60 9.38L40.60 9.38Q40.53 9.63 40.53 9.91L40.53 9.91L40.53 9.91Q40.53 10.54 40.85 11.02L40.85 11.02L40.85 11.02Q41.16 11.49 41.62 11.81L41.62 11.81L41.62 11.81Q42.07 12.12 42.58 12.29L42.58 12.29L42.58 12.29Q43.09 12.45 43.50 12.45L43.50 12.45L43.50 12.45Q44.04 12.45 44.48 12.34L44.48 12.34L44.48 12.34Q44.91 12.24 45.22 12.10L45.22 12.10L45.22 12.10Q45.58 11.94 45.85 11.75L45.85 11.75L45.85 11.75Q45.56 12.01 45.17 12.40L45.17 12.40L45.17 12.40Q44.79 12.78 44.33 13.14L44.33 13.14L44.33 13.14Q43.88 13.50 43.34 13.75L43.34 13.75L43.34 13.75Q42.80 14 42.18 14L42.18 14L42.18 14Q41.48 14 40.90 13.74L40.90 13.74L40.90 13.74Q40.32 13.48 39.91 13.05L39.91 13.05L39.91 13.05Q39.49 12.63 39.26 12.08L39.26 12.08L39.26 12.08Q39.03 11.54 39.03 10.95L39.03 10.95L39.03 10.95Q39.03 10.42 39.26 9.97L39.26 9.97L39.26 9.97Q39.49 9.52 39.85 9.14L39.85 9.14L39.85 9.14Q40.21 8.76 40.65 8.45L40.65 8.45L40.65 8.45Q41.09 8.13 41.52 7.87L41.52 7.87L41.52 7.87Q41.94 7.60 42.29 7.39L42.29 7.39L42.29 7.39Q42.64 7.18 42.84 7ZM48.47 9.66L48.47 9.66L48.47 9.66Q48.47 10.08 48.63 10.59L48.63 10.59L48.63 10.59Q48.79 11.10 49.17 11.54L49.17 11.54L49.17 11.54Q49.55 11.98 50.16 12.29L50.16 12.29L50.16 12.29Q50.76 12.59 51.65 12.59L51.65 12.59L51.65 12.59Q52.11 12.59 52.37 12.46L52.37 12.46L52.37 12.46Q52.64 12.33 52.77 12.14L52.77 12.14L52.77 12.14Q52.89 11.96 52.93 11.75L52.93 11.75L52.93 11.75Q52.96 11.54 52.96 11.35L52.96 11.35L52.96 11.35Q52.96 10.75 52.73 10.16L52.73 10.16L52.73 10.16Q52.50 9.58 52.09 9.11L52.09 9.11L52.09 9.11Q51.69 8.65 51.13 8.37L51.13 8.37L51.13 8.37Q50.58 8.09 49.94 8.09L49.94 8.09L49.94 8.09Q49.52 8.09 49.24 8.25L49.24 8.25L49.24 8.25Q48.96 8.41 48.78 8.66L48.78 8.66L48.78 8.66Q48.61 8.90 48.54 9.18L48.54 9.18L48.54 9.18Q48.47 9.45 48.47 9.66ZM51.55 7L51.55 7L51.55 7Q51.97 7 52.45 7.18L52.45 7.18L52.45 7.18Q52.93 7.36 53.35 7.73L53.35 7.73L53.35 7.73Q53.76 8.09 54.03 8.66L54.03 8.66L54.03 8.66Q54.29 9.23 54.29 9.98L54.29 9.98L54.29 9.98Q54.29 10.42 54.09 10.88L54.09 10.88L54.09 10.88Q53.89 11.34 53.56 11.79L53.56 11.79L53.56 11.79Q53.23 12.24 52.80 12.63L52.80 12.63L52.80 12.63Q52.37 13.03 51.92 13.34L51.92 13.34L51.92 13.34Q51.46 13.64 51.01 13.82L51.01 13.82L51.01 13.82Q50.55 14 50.18 14L50.18 14L50.18 14Q49.60 14 49.08 13.76L49.08 13.76L49.08 13.76Q48.55 13.52 48.15 13.12L48.15 13.12L48.15 13.12Q47.74 12.71 47.49 12.19L47.49 12.19L47.49 12.19Q47.25 11.66 47.25 11.07L47.25 11.07L47.25 11.07Q47.25 10.28 47.68 9.54L47.68 9.54L47.68 9.54Q48.12 8.81 48.76 8.24L48.76 8.24L48.76 8.24Q49.41 7.67 50.16 7.34L50.16 7.34L50.16 7.34Q50.90 7 51.55 7ZM53.49 3.33L53.49 3.33L53.49 3.33Q53.49 2.83 53.89 2.33L53.89 2.33L53.89 2.33Q54.29 1.83 54.91 1.39L54.91 1.39L54.91 1.39Q55.54 0.95 56.29 0.60L56.29 0.60L56.29 0.60Q57.05 0.25 57.75 0.04L57.75 0.04L57.75 0.04Q57.22 0.21 56.73 0.48L56.73 0.48L56.73 0.48Q56.24 0.74 55.86 1.06L55.86 1.06L55.86 1.06Q55.48 1.37 55.25 1.71L55.25 1.71L55.25 1.71Q55.02 2.06 55.02 2.38L55.02 2.38L55.02 2.38Q55.02 2.76 55.27 3.18L55.27 3.18L55.27 3.18Q55.51 3.60 55.90 4.03L55.90 4.03L55.90 4.03Q56.28 4.45 56.76 4.86L56.76 4.86L56.76 4.86Q57.25 5.26 57.73 5.61L57.73 5.61L57.73 5.61Q58.21 5.95 58.64 6.22L58.64 6.22L58.64 6.22Q59.07 6.50 59.36 6.64L59.36 6.64L59.36 6.64Q59.64 6.78 60.00 6.92L60.00 6.92L60.00 6.92Q60.37 7.07 60.75 7.26L60.75 7.26L60.75 7.26Q61.14 7.45 61.52 7.69L61.52 7.69L61.52 7.69Q61.89 7.94 62.19 8.27L62.19 8.27L62.19 8.27Q62.48 8.61 62.66 9.04L62.66 9.04L62.66 9.04Q62.85 9.48 62.85 10.05L62.85 10.05L62.85 10.05Q62.85 10.51 62.71 10.91L62.71 10.91L62.71 10.91Q62.57 11.30 62.33 11.63L62.33 11.63L62.33 11.63Q62.09 11.97 61.79 12.26L61.79 12.26L61.79 12.26Q61.49 12.54 61.15 12.81L61.15 12.81L61.15 12.81Q60.48 13.34 59.86 13.68L59.86 13.68L59.86 13.68Q59.25 14.01 58.59 14.01L58.59 14.01L58.59 14.01Q58.04 14.01 57.58 13.79L57.58 13.79L57.58 13.79Q57.12 13.57 56.80 13.21L56.80 13.21L56.80 13.21Q56.48 12.85 56.29 12.41L56.29 12.41L56.29 12.41Q56.11 11.97 56.11 11.54L56.11 11.54L56.11 11.54Q56.11 10.92 56.25 10.51L56.25 10.51L56.25 10.51Q56.39 10.09 56.62 9.81L56.62 9.81L56.62 9.81Q56.85 9.53 57.15 9.34L57.15 9.34L57.15 9.34Q57.44 9.14 57.75 8.96L57.75 8.96L57.75 8.96Q58.03 8.74 58.32 8.57L58.32 8.57L58.32 8.57Q58.60 8.40 58.94 8.29L58.94 8.29L58.94 8.29Q58.44 8.04 57.96 7.78L57.96 7.78L57.96 7.78Q57.48 7.52 57.12 7.24L57.12 7.24L57.12 7.24Q56.85 7.06 56.48 6.80L56.48 6.80L56.48 6.80Q56.11 6.55 55.71 6.25L55.71 6.25L55.71 6.25Q55.31 5.95 54.91 5.60L54.91 5.60L54.91 5.60Q54.52 5.25 54.20 4.88L54.20 4.88L54.20 4.88Q53.89 4.51 53.69 4.12L53.69 4.12L53.69 4.12Q53.49 3.72 53.49 3.33ZM61.28 10.91L61.28 10.91L61.28 10.91Q61.28 10.47 61.10 10.12L61.10 10.12L61.10 10.12Q60.93 9.76 60.63 9.46L60.63 9.46L60.63 9.46Q60.34 9.16 59.95 8.90L59.95 8.90L59.95 8.90Q59.56 8.65 59.12 8.43L59.12 8.43L59.12 8.43Q58.87 8.47 58.60 8.62L58.60 8.62L58.60 8.62Q58.32 8.76 58.11 9.00L58.11 9.00L58.11 9.00Q57.89 9.24 57.74 9.55L57.74 9.55L57.74 9.55Q57.60 9.87 57.60 10.25L57.60 10.25L57.60 10.25Q57.60 10.70 57.76 11.12L57.76 11.12L57.76 11.12Q57.93 11.55 58.25 11.89L58.25 11.89L58.25 11.89Q58.58 12.22 59.05 12.43L59.05 12.43L59.05 12.43Q59.51 12.63 60.13 12.63L60.13 12.63L60.13 12.63Q60.61 12.63 60.85 12.51L60.85 12.51L60.85 12.51Q61.10 12.39 61.19 12.17L61.19 12.17L61.19 12.17Q61.28 11.94 61.28 11.62L61.28 11.62L61.28 11.62Q61.28 11.30 61.28 10.91ZM69.16 12.49L69.16 12.49L69.16 12.49Q69.57 12.49 69.92 12.38L69.92 12.38L69.92 12.38Q70.28 12.28 70.55 12.14L70.55 12.14L70.55 12.14Q70.85 11.98 71.12 11.79L71.12 11.79L71.12 11.79Q70.74 12.42 70.21 12.91L70.21 12.91L70.21 12.91Q69.76 13.33 69.08 13.67L69.08 13.67L69.08 13.67Q68.40 14.01 67.51 14.01L67.51 14.01L67.51 14.01Q66.86 14.01 66.28 13.79L66.28 13.79L66.28 13.79Q65.69 13.57 65.23 13.15L65.23 13.15L65.23 13.15Q64.78 12.73 64.51 12.12L64.51 12.12L64.51 12.12Q64.25 11.51 64.25 10.75L64.25 10.75L64.25 10.75Q64.25 10.07 64.46 9.54L64.46 9.54L64.46 9.54Q64.68 9.02 65.03 8.62L65.03 8.62L65.03 8.62Q65.38 8.23 65.81 7.97L65.81 7.97L65.81 7.97Q66.25 7.71 66.67 7.55L66.67 7.55L66.67 7.55Q68.01 7 68.50 7L68.50 7L68.50 7Q69.02 7 69.41 7.17L69.41 7.17L69.41 7.17Q69.79 7.35 70.07 7.56L70.07 7.56L70.07 7.56Q70.38 7.81 70.62 8.12L70.62 8.12L66.00 9.98L66.00 9.98Q66.09 10.57 66.28 11.03L66.28 11.03L66.28 11.03Q66.46 11.49 66.81 11.82L66.81 11.82L66.81 11.82Q67.16 12.14 67.72 12.31L67.72 12.31L67.72 12.31Q68.28 12.49 69.16 12.49ZM66.89 7.81L66.89 7.81L66.89 7.81Q66.70 7.81 66.51 7.92L66.51 7.92L66.51 7.92Q66.33 8.02 66.19 8.19L66.19 8.19L66.19 8.19Q66.04 8.36 65.96 8.57L65.96 8.57L65.96 8.57Q65.88 8.78 65.90 8.99L65.90 8.99L65.90 8.99Q65.90 9.21 65.91 9.42L65.91 9.42L65.91 9.42Q65.91 9.63 65.95 9.84L65.95 9.84L68.31 8.76L68.31 8.76Q68.17 8.50 67.96 8.29L67.96 8.29L67.96 8.29Q67.77 8.11 67.51 7.96L67.51 7.96L67.51 7.96Q67.24 7.81 66.89 7.81ZM75.10 10.86L75.10 10.86L75.10 10.86Q74.83 10.86 74.44 10.81L74.44 10.81L74.44 10.81Q74.06 10.75 73.70 10.58L73.70 10.58L73.70 10.58Q73.35 10.40 73.09 10.08L73.09 10.08L73.09 10.08Q72.84 9.76 72.84 9.23L72.84 9.23L72.84 9.23Q72.84 8.81 73.06 8.48L73.06 8.48L73.06 8.48Q73.28 8.15 73.61 7.90L73.61 7.90L73.61 7.90Q73.95 7.64 74.37 7.48L74.37 7.48L74.37 7.48Q74.79 7.31 75.18 7.20L75.18 7.20L75.18 7.20Q75.57 7.08 75.90 7.04L75.90 7.04L75.90 7.04Q76.23 6.99 76.40 6.99L76.40 6.99L76.40 6.99Q76.52 6.99 76.71 6.99L76.71 6.99L76.71 6.99Q76.90 7 77.09 7.02L77.09 7.02L77.09 7.02Q77.28 7.04 77.45 7.06L77.45 7.06L77.45 7.06Q77.63 7.08 77.71 7.13L77.71 7.13L77.71 7.13Q77.66 7.31 77.59 7.54L77.59 7.54L77.59 7.54Q77.53 7.77 77.48 8.02L77.48 8.02L77.48 8.02Q77.42 8.26 77.38 8.50L77.38 8.50L77.38 8.50Q77.35 8.75 77.35 8.96L77.35 8.96L77.35 8.96Q77.25 8.75 77.08 8.50L77.08 8.50L77.08 8.50Q76.92 8.26 76.69 8.04L76.69 8.04L76.69 8.04Q76.45 7.83 76.16 7.69L76.16 7.69L76.16 7.69Q75.87 7.55 75.52 7.55L75.52 7.55L75.52 7.55Q75.25 7.55 75.05 7.63L75.05 7.63L75.05 7.63Q74.84 7.71 74.70 7.85L74.70 7.85L74.70 7.85Q74.55 7.99 74.47 8.16L74.47 8.16L74.47 8.16Q74.40 8.32 74.40 8.47L74.40 8.47L74.40 8.47Q74.40 8.79 74.55 9.04L74.55 9.04L74.55 9.04Q74.70 9.28 74.96 9.45L74.96 9.45L74.96 9.45Q75.21 9.62 75.54 9.70L75.54 9.70L75.54 9.70Q75.87 9.79 76.22 9.79L76.22 9.79L76.22 9.79Q76.79 9.79 77.20 9.90L77.20 9.90L77.20 9.90Q77.62 10.01 77.88 10.19L77.88 10.19L77.88 10.19Q78.13 10.37 78.25 10.61L78.25 10.61L78.25 10.61Q78.37 10.84 78.37 11.06L78.37 11.06L78.37 11.06Q78.37 11.80 77.96 12.36L77.96 12.36L77.96 12.36Q77.55 12.91 76.95 13.27L76.95 13.27L76.95 13.27Q76.36 13.64 75.70 13.82L75.70 13.82L75.70 13.82Q75.05 14 74.58 14L74.58 14L74.58 14Q73.86 14 73.30 13.82L73.30 13.82L73.30 13.82Q72.74 13.64 72.52 13.44L72.52 13.44L72.52 13.44Q72.67 13.20 72.79 12.77L72.79 12.77L72.79 12.77Q72.90 12.33 72.94 11.76L72.94 11.76L72.94 11.76Q73.12 12.11 73.43 12.40L73.43 12.40L73.43 12.40Q73.74 12.68 74.12 12.88L74.12 12.88L74.12 12.88Q74.49 13.08 74.92 13.19L74.92 13.19L74.92 13.19Q75.35 13.30 75.80 13.30L75.80 13.30L75.80 13.30Q75.95 13.30 76.15 13.26L76.15 13.26L76.15 13.26Q76.34 13.22 76.51 13.12L76.51 13.12L76.51 13.12Q76.68 13.02 76.80 12.85L76.80 12.85L76.80 12.85Q76.92 12.68 76.92 12.42L76.92 12.42L76.92 12.42Q76.92 12.17 76.79 11.89L76.79 11.89L76.79 11.89Q76.66 11.62 76.43 11.39L76.43 11.39L76.43 11.39Q76.19 11.16 75.85 11.01L75.85 11.01L75.85 11.01Q75.52 10.86 75.10 10.86Z"></path></g><!----><!----></svg>